<svg class="iDevLogo" width="40" height="40" xmlns="http://www.w3.org/2000/svg" viewBox="0 0 150 150">
  <defs>
    <style>
      .cls-1 {
      fill: #252728;
      }

      .cls-2 {
      fill: #6295fe;
      }
    </style>
  </defs>
  <g>
    <g>
      <g id="logo">
        <path id="triangle" class="cls-1"
              d="M17,51.25c.57,0,1.14,0,1.7.06s1.11.1,1.66.18A1.93,1.93,0,0,0,21.94,51a2,2,0,0,0,.67-1.51V26.91A11.73,11.73,0,0,1,40.17,16.73L81.49,40.39l41.33,23.67a11.73,11.73,0,0,1,0,20.36L81.41,108.14,40.18,131.76a11.74,11.74,0,0,1-17.57-10.18V99a2,2,0,0,0-.67-1.51A1.94,1.94,0,0,0,20.36,97c-.55.08-1.1.14-1.66.18s-1.13.07-1.7.07-.92,0-1.37,0-.91-.07-1.35-.13a2.06,2.06,0,0,0-1.59.48,2,2,0,0,0-.69,1.5v34.67a14.74,14.74,0,0,0,22.07,12.79l51.82-29.68,52-29.81a14.74,14.74,0,0,0,0-25.58L86,31.71,34.06,2A14.74,14.74,0,0,0,12,14.76V49.43a2,2,0,0,0,.69,1.5,2.06,2.06,0,0,0,1.59.48q.66-.07,1.35-.12C16.08,51.26,16.54,51.25,17,51.25Z"/>
        <path id="circle" class="cls-2" d="M0,74.25a17,17,0,1,0,5-12A16.94,16.94,0,0,0,0,74.25Z"/>
      </g>
    </g>
  </g>
</svg>
